<svg version="1.1" xmlns="http://www.w3.org/2000/svg" xmlns:xlink="http://www.w3.org/1999/xlink" width="269.62867" height="184.81587" viewBox="0,0,269.62867,184.81587"><g transform="translate(-130.21129,-75.52372)"><g data-paper-data="{&quot;isPaintingLayer&quot;:true}" fill="none" fill-rule="nonzero" stroke="#000000" stroke-width="5" stroke-linejoin="miter" stroke-miterlimit="10" stroke-dasharray="" stroke-dashoffset="0" style="mix-blend-mode: normal"><g><path d="M150.16141,198.45773c-0.30633,-0.0539 0,-50.74027 0,-50.74027c0,0 54.63412,-8.52302 54.54324,-8.63664c-0.11202,-0.14004 0,50.74027 0,50.74027c0,0 -54.31932,8.67604 -54.54324,8.63664z" stroke-linecap="butt"/><path d="M132.71129,179.72152c0,0 -0.11751,-50.54903 0,-50.74027c0.38688,-0.62957 17.48441,18.7163 17.48441,18.7163c0,0 0.0899,50.77188 0,50.74027c-0.499,-0.17545 -17.48441,-18.7163 -17.48441,-18.7163z" stroke-linecap="butt"/><path d="M150.16141,147.74344c-0.30633,-0.0539 -17.41089,-19.206 -17.42857,-19.31169c-0.10435,-0.6236 53.11467,-9.92236 53.11467,-9.92236c0,0 19.22816,20.2848 18.85715,20.59741c-0.23177,0.19529 -54.31932,8.67604 -54.54324,8.63664z" stroke-linecap="butt"/><path d="M169.79443,160.09208v13.14286" stroke-linecap="round"/><path d="M187.65157,156.52065v13.14285" stroke-linecap="round"/></g><path d="M262.53334,101.21701l-18.98138,31.80034l19.21464,-31.7166l64.76673,23.2496l53.66667,-22.33333l-69,-24z" stroke-linecap="round"/><path d="M327.35779,124.54738l0.38462,33.84615l-83.46154,-28.46154l5.99186,108.6014l75.90909,18.63636l2.32982,-98.77622l67.69231,-30.76923l-16.15385,-25.76923" stroke-linecap="round"/><path d="M396.18182,128.53339l-9.54545,110.90909l-60,16.81818" stroke-linecap="round"/></g></g></svg>